<svg aria-hidden="true" style="position: absolute; width: 0; height: 0; overflow: hidden;" version="1.1" xmlns="http://www.w3.org/2000/svg" xmlns:xlink="http://www.w3.org/1999/xlink">
<defs>
<symbol id="icon-cross" viewBox="0 0 20 20">
<title>cross</title>
<path d="M14.348 14.849c-0.469 0.469-1.229 0.469-1.697 0l-2.651-3.030-2.651 3.029c-0.469 0.469-1.229 0.469-1.697 0-0.469-0.469-0.469-1.229 0-1.697l2.758-3.15-2.759-3.152c-0.469-0.469-0.469-1.228 0-1.697s1.228-0.469 1.697 0l2.652 3.031 2.651-3.031c0.469-0.469 1.228-0.469 1.697 0s0.469 1.229 0 1.697l-2.758 3.152 2.758 3.15c0.469 0.469 0.469 1.229 0 1.698z"></path>
</symbol>
<symbol id="icon-chevron-thin-left" viewBox="0 0 20 20">
<title>chevron-thin-left</title>
<path d="M13.891 17.418c0.268 0.272 0.268 0.709 0 0.979s-0.701 0.271-0.969 0l-7.83-7.908c-0.268-0.27-0.268-0.707 0-0.979l7.83-7.908c0.268-0.27 0.701-0.27 0.969 0s0.268 0.709 0 0.979l-7.141 7.419 7.141 7.418z"></path>
</symbol>
<symbol id="icon-chevron-thin-right" viewBox="0 0 20 20">
<title>chevron-thin-right</title>
<path d="M13.25 10l-7.141-7.42c-0.268-0.27-0.268-0.707 0-0.979 0.268-0.27 0.701-0.27 0.969 0l7.83 7.908c0.268 0.271 0.268 0.709 0 0.979l-7.83 7.908c-0.268 0.271-0.701 0.27-0.969 0s-0.268-0.707 0-0.979l7.141-7.417z"></path>
</symbol>
<symbol id="icon-menu" viewBox="0 0 20 20">
<title>menu</title>
<path d="M16.4 9h-12.8c-0.552 0-0.6 0.447-0.6 1s0.048 1 0.6 1h12.8c0.552 0 0.6-0.447 0.6-1s-0.048-1-0.6-1zM16.4 13h-12.8c-0.552 0-0.6 0.447-0.6 1s0.048 1 0.6 1h12.8c0.552 0 0.6-0.447 0.6-1s-0.048-1-0.6-1zM3.6 7h12.8c0.552 0 0.6-0.447 0.6-1s-0.048-1-0.6-1h-12.8c-0.552 0-0.6 0.447-0.6 1s0.048 1 0.6 1z"></path>
</symbol>
<symbol id="icon-rss" viewBox="0 0 20 20">
<title>rss</title>
<path d="M2.4 2.4v2.367c7.086 0 12.83 5.746 12.83 12.832h2.369c0-8.394-6.805-15.199-15.199-15.199zM2.4 7.137v2.369c4.469 0 8.093 3.623 8.093 8.094h2.368c0-5.778-4.684-10.463-10.461-10.463zM4.669 13.059c-1.254 0-2.27 1.018-2.27 2.271s1.016 2.27 2.27 2.27 2.269-1.016 2.269-2.27-1.015-2.271-2.269-2.271z"></path>
</symbol>
<symbol id="doosan-logo-2" viewBox="0 0 340 237">
<title>doosan-logo-2</title>
    <defs>
        <path id="a" d="M.235 6.33h5.318V.977H.235V6.33z"/>
        <path id="c" d="M0 235.93h339.326V0H0z"/>
    </defs>
    <g fill="none" fill-rule="evenodd" transform="translate(.5 .309)">
        <path fill="#FEFEFE" d="M246.297 160.059a8.74 8.74 0 0 1 2.58 6.226v60.533c0 4.855-3.95 8.804-8.804 8.804H104.698a8.74 8.74 0 0 1-6.228-2.578 8.747 8.747 0 0 1-2.58-6.226v-60.533c0-2.352.917-4.563 2.58-6.226a8.748 8.748 0 0 1 6.228-2.58h135.375c2.35 0 4.563.917 6.224 2.58z"/>
        <path fill="#EC174C" d="M246.297 160.059a8.744 8.744 0 0 0-6.224-2.58h-37.85l21.774 36.33 1.99.249 1.162 1.657.002 1.576 1.409.247 1.247 1.74v1.493l1.41.249s1.41 1.49 1.41 1.574l.003 3.4s3.069 2.818 5.805 3.896c1.91.744 2.159 3.813 3.24 5.47 1.493 2.323 3.483 3.314 3.07 4.643-.994 3.567-4.64 9.54-8.038 9.87l-13.436.012.003 5.737h16.799c4.854 0 8.804-3.949 8.804-8.804v-60.533a8.74 8.74 0 0 0-2.58-6.226"/>
        <path fill="#004785" d="M114.095 223.163a6.043 6.043 0 0 1-6.049-6.04 6.043 6.043 0 0 1 6.041-6.05 6.042 6.042 0 0 1 6.049 6.042 6.042 6.042 0 0 1-6.04 6.048zm75.226-65.682h-84.623a8.75 8.75 0 0 0-6.228 2.578 8.754 8.754 0 0 0-2.58 6.226v60.532c0 2.352.918 4.563 2.58 6.226a8.743 8.743 0 0 0 6.228 2.578h54.971c-1.38-2.296-2.928-4.909-3.404-5.702l-6.55.002c-.01-16.253 5.542-25.293 12.092-27.04.91-.166.496-4.645-.668-5.97 0 0-3.15.084-3.812-.082-.831-.247-.252-1.076-.252-1.076l3.067-6.636-.416-1.825-11.36.006c-.166 0 9.366-6.556 9.366-6.556.487-17.249 18.152-18.585 28.852-11.46 6.305 4.227 6.807 12.52 6.312 18.323-.081.333-1.657.084-1.657.084s-1.077 6.304 1.744 6.302l12.439-.006c5.06-.168 9.953 3.228 9.953 3.228l1.24-4.31-27.294-35.422z"/>
        <g transform="translate(252.633 229.6)">
            <mask id="b" fill="#fff">
                <use xlink:href="#a"/>
            </mask>
            <path fill="#EC174C" d="M2.36 3.426v-.672H3c.272 0 .64 0 .64.3 0 .306-.188.372-.5.372h-.78zm1.092.499c.493-.032.759-.312.759-.826 0-.734-.44-.847-1.08-.847H1.778v2.78h.582V3.926h.486l.648 1.108h.636l-.678-1.108zm-.557 2.406c1.483 0 2.658-1.187 2.658-2.678A2.649 2.649 0 0 0 2.895.977a2.65 2.65 0 0 0-2.66 2.676 2.652 2.652 0 0 0 2.66 2.678zm0-4.772c1.146 0 2.075.894 2.075 2.094 0 1.196-.929 2.101-2.075 2.101-1.15 0-2.078-.905-2.078-2.101 0-1.2.928-2.094 2.078-2.094z" mask="url(#b)"/>
        </g>
        <mask id="d" fill="#fff">
            <use xlink:href="#c"/>
        </mask>
        <path fill="#004785" d="M95.317 140.664h154.556v-2.386H95.317zM2.916 117.301c.122.494.317.939.583 1.333.267.395.615.71 1.044.948.43.239.951.357 1.567.357s1.138-.118 1.567-.357a2.967 2.967 0 0 0 1.044-.948c.268-.394.462-.839.584-1.333.122-.492.182-1 .182-1.522 0-.546-.06-1.075-.182-1.584a4.19 4.19 0 0 0-.584-1.366 2.953 2.953 0 0 0-1.044-.96c-.429-.237-.951-.354-1.567-.354s-1.138.117-1.567.355a2.967 2.967 0 0 0-1.044.959c-.266.4-.46.856-.583 1.366a6.792 6.792 0 0 0-.183 1.584c0 .522.062 1.03.183 1.522m-2.499-4.108a6.227 6.227 0 0 1 1.202-2.08 5.527 5.527 0 0 1 1.924-1.392c.76-.336 1.616-.505 2.567-.505.964 0 1.822.17 2.577.505a5.534 5.534 0 0 1 1.914 1.392 6.227 6.227 0 0 1 1.202 2.08c.278.796.417 1.657.417 2.586 0 .905-.139 1.75-.417 2.534a6.073 6.073 0 0 1-1.202 2.046 5.528 5.528 0 0 1-1.914 1.366c-.755.33-1.613.493-2.577.493-.951 0-1.807-.163-2.567-.493a5.522 5.522 0 0 1-1.924-1.366 6.074 6.074 0 0 1-1.202-2.046A7.512 7.512 0 0 1 0 115.779c0-.93.139-1.79.417-2.586M12.882 114.595v-1.654h1.48v-.696c0-.8.25-1.456.749-1.967.498-.51 1.253-.766 2.263-.766.22 0 .441.01.661.027.22.015.436.031.645.042v1.846a7.616 7.616 0 0 0-.906-.051c-.337 0-.577.078-.723.234-.146.155-.217.421-.217.792v.54h1.706v1.653h-1.706v7.346h-2.472v-7.346h-1.48z" mask="url(#d)"/>
        <path fill="#004785" d="M18.367 114.595v-1.654h1.48v-.696c0-.8.25-1.456.748-1.967.499-.51 1.254-.766 2.263-.766.22 0 .442.01.662.027.22.015.435.031.644.042v1.846a7.616 7.616 0 0 0-.905-.051c-.337 0-.578.078-.724.234-.145.155-.216.421-.216.792v.54h1.706v1.653h-1.706v7.346h-2.472v-7.346h-1.48zM25.174 121.94h2.472v-9h-2.472v9zm0-10.39h2.472v-2.038h-2.472v2.037zM33.895 114.56c-.395 0-.725.091-.992.27-.268.18-.484.413-.654.696a3.015 3.015 0 0 0-.356.94 4.885 4.885 0 0 0 0 2.011c.07.336.184.642.34.914.156.274.368.497.635.671.268.173.592.261.975.261.592 0 1.048-.166 1.367-.497.318-.33.52-.775.6-1.332h2.385c-.163 1.196-.627 2.106-1.393 2.733-.766.627-1.747.942-2.942.942a4.95 4.95 0 0 1-1.853-.34 4.143 4.143 0 0 1-1.437-.949 4.315 4.315 0 0 1-.922-1.454 5.054 5.054 0 0 1-.331-1.855c0-.696.101-1.342.304-1.939a4.38 4.38 0 0 1 .897-1.55 4.087 4.087 0 0 1 1.445-1.018c.568-.245 1.218-.366 1.95-.366.533 0 1.047.068 1.54.208.493.139.935.353 1.323.636.389.285.705.638.95 1.06.243.426.382.928.417 1.507h-2.42c-.163-1.032-.772-1.55-1.828-1.55M39.658 121.94h2.472v-9h-2.472v9zm0-10.39h2.472v-2.038h-2.472v2.037zM49.685 117.536a1.108 1.108 0 0 1-.393.22 3.979 3.979 0 0 1-.505.13c-.18.033-.368.065-.565.085-.197.026-.395.054-.591.087a5.363 5.363 0 0 0-.55.14 1.678 1.678 0 0 0-.47.235c-.133.099-.24.225-.32.376-.083.148-.123.341-.123.572 0 .224.04.409.122.56.08.15.192.268.33.355.14.087.302.149.488.182.185.037.377.054.575.054.487 0 .864-.08 1.131-.245.266-.16.464-.355.592-.583.127-.226.206-.456.234-.687a4.54 4.54 0 0 0 .045-.557v-.924zm-5.71-1.826c.035-.581.179-1.062.435-1.445.255-.383.58-.692.975-.923a4.242 4.242 0 0 1 1.332-.497c.493-.096.99-.147 1.488-.147.453 0 .91.032 1.375.097.464.061.888.188 1.271.373.383.185.696.443.94.774.244.33.366.77.366 1.315v4.683c0 .405.022.795.07 1.166.045.37.128.65.243.834h-2.507a3.591 3.591 0 0 1-.174-.868c-.395.405-.86.69-1.392.851a5.58 5.58 0 0 1-1.637.245c-.43 0-.83-.052-1.201-.156a2.755 2.755 0 0 1-.975-.488 2.262 2.262 0 0 1-.654-.835c-.156-.337-.234-.74-.234-1.203 0-.51.089-.93.27-1.26.18-.33.41-.595.696-.793.284-.196.609-.345.974-.444.366-.099.735-.176 1.107-.235.37-.058.736-.106 1.096-.139.36-.035.68-.087.958-.158.278-.068.498-.17.661-.304.162-.133.238-.328.227-.582 0-.268-.045-.48-.132-.638a.975.975 0 0 0-.348-.364 1.325 1.325 0 0 0-.505-.173 3.987 3.987 0 0 0-.617-.044c-.487 0-.87.104-1.149.313-.278.21-.441.556-.487 1.045h-2.472zM54.14 121.94h2.473v-12.43H54.14zM68.52 115.36c.314 0 .616-.022.906-.068.29-.046.546-.136.766-.27.22-.134.397-.323.532-.566.133-.243.199-.563.199-.957 0-.396-.066-.714-.2-.958a1.471 1.471 0 0 0-.531-.566 2.135 2.135 0 0 0-.766-.27 5.78 5.78 0 0 0-.905-.07h-2.124v3.725h2.124zm.75-5.848c.776 0 1.438.113 1.984.34.544.225.989.526 1.33.896.344.37.593.795.75 1.271.156.475.235.969.235 1.48 0 .498-.079.99-.234 1.472a3.448 3.448 0 0 1-.75 1.278c-.342.372-.787.67-1.331.898-.546.225-1.208.338-1.985.338h-2.872v4.455h-2.733v-12.428h5.605zM80.62 117.536a1.108 1.108 0 0 1-.393.22 3.979 3.979 0 0 1-.505.13c-.18.033-.368.065-.565.085-.198.026-.395.054-.592.087a5.363 5.363 0 0 0-.549.14 1.678 1.678 0 0 0-.47.235c-.133.099-.24.225-.321.376-.082.148-.122.341-.122.572 0 .224.04.409.122.56.08.15.191.268.33.355.14.087.301.149.488.182.185.037.377.054.575.054.487 0 .864-.08 1.131-.245.266-.16.464-.355.592-.583.127-.226.206-.456.234-.687a4.54 4.54 0 0 0 .045-.557v-.924zm-5.71-1.826c.034-.581.178-1.062.435-1.445.255-.383.579-.692.975-.923a4.242 4.242 0 0 1 1.332-.497c.492-.096.99-.147 1.488-.147.452 0 .91.032 1.375.097.464.061.888.188 1.271.373.383.185.696.443.94.774.244.33.366.77.366 1.315v4.683c0 .405.022.795.07 1.166.045.37.127.65.243.834h-2.507a3.591 3.591 0 0 1-.174-.868c-.396.405-.86.69-1.393.851a5.58 5.58 0 0 1-1.636.245c-.43 0-.83-.052-1.201-.156a2.755 2.755 0 0 1-.975-.488 2.262 2.262 0 0 1-.654-.835c-.156-.337-.234-.74-.234-1.203 0-.51.089-.93.27-1.26.18-.33.41-.595.695-.793.285-.196.61-.345.975-.444.366-.099.735-.176 1.107-.235.37-.058.735-.106 1.096-.139.36-.035.68-.087.958-.158.278-.068.498-.17.661-.304.162-.133.238-.328.227-.582 0-.268-.045-.48-.132-.638a.975.975 0 0 0-.348-.364 1.325 1.325 0 0 0-.505-.173 3.987 3.987 0 0 0-.617-.044c-.487 0-.87.104-1.149.313-.279.21-.442.556-.487 1.045H74.91zM87.356 112.941v1.672h.035a3.064 3.064 0 0 1 1.149-1.383c.255-.17.529-.3.818-.391.29-.094.592-.14.906-.14.161 0 .341.027.54.086v2.298a4.885 4.885 0 0 0-.888-.087c-.453 0-.836.076-1.15.224-.313.152-.566.36-.756.62-.192.262-.33.564-.41.914-.08.348-.122.725-.122 1.131v4.057h-2.472v-9h2.35zM96.721 112.941v1.654h-1.81v4.455c0 .42.07.698.209.839.14.14.418.207.835.207.14 0 .273-.004.4-.016.129-.012.25-.031.366-.052v1.914c-.209.034-.44.058-.696.07-.255.01-.505.017-.749.017-.383 0-.745-.026-1.087-.08a2.569 2.569 0 0 1-.905-.303 1.608 1.608 0 0 1-.619-.644c-.15-.279-.226-.643-.226-1.099v-5.308h-1.497v-1.654h1.497v-2.698h2.472v2.698h1.81zM100.256 112.941v1.254h.052c.314-.522.719-.902 1.219-1.141a3.527 3.527 0 0 1 1.532-.355c.661 0 1.204.089 1.627.27a2.41 2.41 0 0 1 1.001.746c.244.32.415.71.513 1.168.1.46.149.966.149 1.521v5.538h-2.472v-5.082c0-.744-.117-1.3-.348-1.663-.233-.368-.644-.55-1.236-.55-.674 0-1.16.2-1.463.602-.302.399-.452 1.059-.452 1.975v4.718h-2.472v-9h2.35zM113.67 115.048c-.297-.325-.748-.49-1.35-.49-.395 0-.722.069-.983.202s-.47.3-.627.497a1.825 1.825 0 0 0-.33.625c-.066.223-.104.42-.115.593h4.022c-.116-.626-.322-1.103-.618-1.427m-2.794 4.735c.371.36.905.54 1.601.54.5 0 .93-.125 1.288-.374.361-.25.581-.516.662-.793h2.176c-.348 1.078-.882 1.852-1.602 2.316-.718.465-1.59.696-2.61.696-.708 0-1.348-.112-1.916-.339a3.983 3.983 0 0 1-1.445-.967 4.342 4.342 0 0 1-.913-1.495 5.485 5.485 0 0 1-.323-1.917c0-.672.111-1.3.331-1.88.22-.58.533-1.082.94-1.505a4.422 4.422 0 0 1 1.454-1.002c.562-.243 1.186-.364 1.871-.364.766 0 1.434.146 2.002.442a4.01 4.01 0 0 1 1.402 1.193c.366.499.629 1.068.792 1.706.163.638.22 1.306.174 2.004h-6.494c.035.799.24 1.38.61 1.739M120.572 112.941v1.672h.034a3.065 3.065 0 0 1 1.149-1.383c.255-.17.529-.3.819-.391.29-.094.591-.14.905-.14.161 0 .342.027.54.086v2.298a4.885 4.885 0 0 0-.888-.087c-.453 0-.836.076-1.15.224-.313.152-.566.36-.756.62-.191.262-.329.564-.41.914-.08.348-.122.725-.122 1.131v4.057h-2.472v-9h2.35zM132.13 118.504c.07.343.189.648.358.922.168.274.39.49.67.654.278.161.626.242 1.044.242.418 0 .77-.08 1.054-.242.283-.163.51-.38.679-.654.168-.274.286-.579.356-.922a5.378 5.378 0 0 0 0-2.114 2.72 2.72 0 0 0-.356-.925 2 2 0 0 0-.679-.652c-.285-.168-.636-.253-1.054-.253-.418 0-.766.085-1.045.253a2 2 0 0 0-.669.652c-.17.267-.288.574-.358.924a5.378 5.378 0 0 0 0 2.115m-2.245-3.012a4.22 4.22 0 0 1 .94-1.499c.406-.41.894-.73 1.462-.956.568-.228 1.208-.338 1.915-.338.707 0 1.35.11 1.923.338a4.215 4.215 0 0 1 1.472.956c.406.413.72.913.94 1.499.22.585.33 1.24.33 1.958 0 .72-.11 1.369-.33 1.95a4.209 4.209 0 0 1-.94 1.489 4.069 4.069 0 0 1-1.472.948c-.573.221-1.216.33-1.923.33-.707 0-1.347-.109-1.915-.33a4.098 4.098 0 0 1-1.462-.948 4.209 4.209 0 0 1-.94-1.49c-.22-.58-.331-1.23-.331-1.95 0-.718.11-1.372.33-1.957M139.529 114.595v-1.654h1.48v-.696c0-.8.25-1.456.748-1.967.499-.51 1.254-.766 2.263-.766.22 0 .442.01.662.027.22.015.435.031.644.042v1.846a7.616 7.616 0 0 0-.905-.051c-.337 0-.578.078-.724.234-.145.155-.216.421-.216.792v.54h1.706v1.653h-1.706v7.346h-2.472v-7.346h-1.48zM155.214 109.512l2.907 8.546h.035l2.75-8.546h3.848v12.43h-2.56v-8.81h-.034l-3.046 8.81h-2.107l-3.046-8.722h-.035v8.722h-2.56v-12.43zM172.501 117.536a1.108 1.108 0 0 1-.392.22 3.979 3.979 0 0 1-.505.13c-.18.033-.369.065-.565.085-.198.026-.396.054-.592.087a5.363 5.363 0 0 0-.55.14 1.678 1.678 0 0 0-.47.235c-.132.099-.24.225-.32.376-.083.148-.122.341-.122.572 0 .224.04.409.122.56.08.15.191.268.33.355.14.087.301.149.488.182.185.037.376.054.574.054.488 0 .864-.08 1.132-.245.266-.16.463-.355.592-.583.126-.226.205-.456.234-.687a4.54 4.54 0 0 0 .044-.557v-.924zm-5.71-1.826c.035-.581.179-1.062.435-1.445.255-.383.58-.692.975-.923a4.242 4.242 0 0 1 1.333-.497c.492-.096.989-.147 1.487-.147.453 0 .91.032 1.376.097.463.061.888.188 1.27.373.384.185.697.443.94.774.244.33.366.77.366 1.315v4.683c0 .405.022.795.07 1.166.046.37.128.65.244.834h-2.507a3.591 3.591 0 0 1-.174-.868c-.396.405-.86.69-1.393.851a5.58 5.58 0 0 1-1.636.245c-.43 0-.831-.052-1.202-.156a2.755 2.755 0 0 1-.974-.488 2.262 2.262 0 0 1-.654-.835c-.157-.337-.234-.74-.234-1.203 0-.51.088-.93.269-1.26.18-.33.411-.595.696-.793.285-.196.61-.345.975-.444.366-.099.734-.176 1.106-.235.37-.058.736-.106 1.097-.139.36-.035.679-.087.957-.158.279-.068.499-.17.662-.304.161-.133.237-.328.226-.582 0-.268-.044-.48-.131-.638a.975.975 0 0 0-.348-.364 1.325 1.325 0 0 0-.505-.173 3.987 3.987 0 0 0-.617-.044c-.488 0-.87.104-1.15.313-.278.21-.44.556-.487 1.045h-2.472zM177.114 111.55h2.472v-2.038h-2.472v2.037zm-.957 11.506c.255 0 .478-.049.67-.147.19-.1.287-.318.287-.654v-9.313h2.472v9.435c0 .464-.05.864-.148 1.201a1.88 1.88 0 0 1-.505.846c-.238.224-.56.394-.966.503-.406.11-.922.166-1.549.166-.29 0-.552-.024-.783-.071v-2.037c.128.047.3.071.522.071zM184.025 118.504c.07.343.189.648.358.922.168.274.39.49.67.654.278.161.626.242 1.044.242.418 0 .77-.08 1.054-.242.283-.163.51-.38.679-.654.168-.274.286-.579.356-.922a5.378 5.378 0 0 0 0-2.114 2.72 2.72 0 0 0-.356-.925 2 2 0 0 0-.679-.652c-.285-.168-.636-.253-1.054-.253-.418 0-.766.085-1.045.253a2 2 0 0 0-.669.652c-.17.267-.288.574-.358.924a5.378 5.378 0 0 0 0 2.115m-2.245-3.012a4.22 4.22 0 0 1 .94-1.499c.406-.41.894-.73 1.462-.956.568-.228 1.208-.338 1.915-.338.707 0 1.35.11 1.923.338a4.215 4.215 0 0 1 1.472.956c.406.413.72.913.94 1.499.22.585.33 1.24.33 1.958 0 .72-.11 1.369-.33 1.95a4.209 4.209 0 0 1-.94 1.489 4.069 4.069 0 0 1-1.472.948c-.573.221-1.216.33-1.923.33-.707 0-1.347-.109-1.915-.33a4.098 4.098 0 0 1-1.462-.948 4.209 4.209 0 0 1-.94-1.49c-.22-.58-.331-1.23-.331-1.95 0-.718.11-1.372.33-1.957M194.714 112.941v1.672h.035a3.065 3.065 0 0 1 1.149-1.383c.255-.17.528-.3.818-.391.29-.094.592-.14.905-.14.162 0 .342.027.54.086v2.298a4.885 4.885 0 0 0-.888-.087c-.453 0-.836.076-1.149.224-.313.152-.566.36-.756.62-.192.262-.33.564-.41.914-.081.348-.122.725-.122 1.131v4.057h-2.472v-9h2.35zM206.969 109.512v10.132h6.058v2.298h-8.791v-12.43zM219.739 115.048c-.296-.325-.747-.49-1.35-.49-.394 0-.722.069-.983.202s-.47.3-.627.497a1.825 1.825 0 0 0-.33.625c-.065.223-.103.42-.114.593h4.021c-.116-.626-.321-1.103-.617-1.427m-2.795 4.735c.372.36.905.54 1.602.54.5 0 .929-.125 1.288-.374.36-.25.58-.516.661-.793h2.176c-.348 1.078-.881 1.852-1.601 2.316-.719.465-1.59.696-2.612.696-.707 0-1.346-.112-1.914-.339a3.983 3.983 0 0 1-1.445-.967 4.342 4.342 0 0 1-.914-1.495 5.485 5.485 0 0 1-.322-1.917c0-.672.11-1.3.33-1.88.22-.58.534-1.082.94-1.505a4.422 4.422 0 0 1 1.455-1.002c.562-.243 1.185-.364 1.87-.364.766 0 1.434.146 2.002.442a4.01 4.01 0 0 1 1.403 1.193c.365.499.628 1.068.791 1.706.163.638.22 1.306.174 2.004h-6.493c.034.799.239 1.38.609 1.739M229.897 117.536a1.108 1.108 0 0 1-.393.22 3.979 3.979 0 0 1-.505.13c-.18.033-.369.065-.565.085-.198.026-.395.054-.592.087a5.363 5.363 0 0 0-.549.14 1.678 1.678 0 0 0-.47.235c-.133.099-.24.225-.321.376-.082.148-.122.341-.122.572 0 .224.04.409.122.56.08.15.191.268.33.355.14.087.301.149.488.182.185.037.377.054.575.054.487 0 .864-.08 1.131-.245.266-.16.464-.355.592-.583.127-.226.206-.456.234-.687a4.54 4.54 0 0 0 .045-.557v-.924zm-5.71-1.826c.034-.581.178-1.062.435-1.445.255-.383.579-.692.975-.923a4.242 4.242 0 0 1 1.332-.497c.492-.096.99-.147 1.488-.147.452 0 .91.032 1.375.097.464.061.888.188 1.27.373.384.185.697.443.941.774.244.33.366.77.366 1.315v4.683c0 .405.022.795.07 1.166.045.37.127.65.243.834h-2.507a3.591 3.591 0 0 1-.174-.868c-.396.405-.86.69-1.393.851a5.58 5.58 0 0 1-1.636.245c-.43 0-.831-.052-1.201-.156a2.755 2.755 0 0 1-.975-.488 2.262 2.262 0 0 1-.654-.835c-.156-.337-.234-.74-.234-1.203 0-.51.089-.93.269-1.26.18-.33.412-.595.696-.793.285-.196.61-.345.975-.444.366-.099.735-.176 1.106-.235.37-.058.736-.106 1.097-.139.36-.035.68-.087.958-.158.278-.068.498-.17.661-.304.162-.133.238-.328.227-.582 0-.268-.045-.48-.132-.638a.975.975 0 0 0-.348-.364 1.325 1.325 0 0 0-.505-.173 3.987 3.987 0 0 0-.617-.044c-.487 0-.87.104-1.149.313-.279.21-.442.556-.487 1.045h-2.472zM239.401 119.609c.266-.14.488-.325.662-.559a2.47 2.47 0 0 0 .392-.791c.086-.296.13-.605.13-.93 0-.371-.035-.722-.104-1.053a2.654 2.654 0 0 0-.348-.88 1.802 1.802 0 0 0-.645-.61c-.267-.15-.604-.226-1.01-.226-.347 0-.646.07-.895.21-.252.138-.459.327-.627.566a2.37 2.37 0 0 0-.367.816c-.074.309-.112.63-.112.967 0 .325.031.648.095.967a2.6 2.6 0 0 0 .33.861c.159.255.363.465.62.627.254.163.574.244.957.244.348 0 .655-.07.922-.21m3.386 2.995c-.099.465-.31.896-.635 1.298-.324.4-.796.739-1.41 1.016-.616.28-1.439.42-2.472.42-.442 0-.891-.055-1.348-.165a4.329 4.329 0 0 1-1.255-.515 3.096 3.096 0 0 1-.94-.896c-.249-.365-.391-.804-.426-1.315h2.454c.116.466.342.787.68.966.336.18.724.27 1.166.27.696 0 1.202-.209 1.524-.625.318-.42.471-.946.46-1.586v-1.183h-.035a2.456 2.456 0 0 1-1.14 1.054 3.715 3.715 0 0 1-1.558.34c-.673 0-1.253-.122-1.74-.36a3.283 3.283 0 0 1-1.202-.973 4.048 4.048 0 0 1-.687-1.445 6.835 6.835 0 0 1-.218-1.75c0-.58.084-1.14.253-1.679a4.362 4.362 0 0 1 .74-1.43c.324-.409.727-.737 1.208-.982.483-.244 1.037-.364 1.663-.364.592 0 1.111.11 1.56.33.446.22.82.591 1.121 1.113h.035v-1.2h2.35v8.425c0 .36-.049.772-.148 1.236M251.012 121.94v-1.251h-.052c-.314.522-.72.899-1.219 1.132a3.61 3.61 0 0 1-1.532.348c-.661 0-1.204-.089-1.627-.261a2.356 2.356 0 0 1-1.001-.74 2.893 2.893 0 0 1-.513-1.169 7.152 7.152 0 0 1-.149-1.52v-5.538h2.472v5.083c0 .744.116 1.3.348 1.663.233.366.644.548 1.236.548.673 0 1.16-.2 1.463-.6.302-.4.452-1.059.452-1.975v-4.72h2.472v9h-2.35zM260.683 115.048c-.296-.325-.747-.49-1.35-.49-.394 0-.722.069-.983.202s-.47.3-.627.497a1.825 1.825 0 0 0-.33.625c-.065.223-.103.42-.114.593h4.021c-.115-.626-.321-1.103-.617-1.427m-2.795 4.735c.372.36.905.54 1.602.54.5 0 .929-.125 1.288-.374.36-.25.58-.516.661-.793h2.176c-.348 1.078-.881 1.852-1.601 2.316-.719.465-1.59.696-2.611.696-.708 0-1.347-.112-1.915-.339a3.983 3.983 0 0 1-1.445-.967 4.342 4.342 0 0 1-.913-1.495 5.485 5.485 0 0 1-.323-1.917c0-.672.11-1.3.33-1.88.22-.58.534-1.082.94-1.505a4.422 4.422 0 0 1 1.455-1.002c.562-.243 1.185-.364 1.87-.364.767 0 1.434.146 2.003.442a4.01 4.01 0 0 1 1.402 1.193c.365.499.628 1.068.791 1.706.163.638.22 1.306.174 2.004h-6.493c.035.799.239 1.38.609 1.739M275.994 119.817c.265 0 .522-.025.766-.077a1.86 1.86 0 0 0 .644-.263 1.3 1.3 0 0 0 .443-.494c.11-.21.166-.476.166-.8 0-.64-.18-1.096-.54-1.366-.359-.274-.835-.412-1.427-.412h-2.977v3.412h2.925zm-.157-5.273c.487 0 .888-.117 1.201-.35.313-.23.47-.609.47-1.131 0-.29-.052-.529-.157-.714a1.163 1.163 0 0 0-.417-.435 1.776 1.776 0 0 0-.602-.217 4.077 4.077 0 0 0-.704-.062h-2.56v2.91h2.769zm.348-5.033c.592 0 1.132.053 1.619.159.487.103.905.275 1.253.512.349.24.62.554.81.95.19.394.287.88.287 1.462 0 .625-.142 1.148-.427 1.567-.283.416-.704.76-1.261 1.026.766.221 1.337.606 1.715 1.158.377.55.565 1.215.565 1.993 0 .626-.122 1.17-.365 1.628a3.152 3.152 0 0 1-.985 1.122 4.39 4.39 0 0 1-1.41.646c-.527.14-1.07.207-1.627.207h-6.023v-12.43h5.85zM287.936 117.536a1.108 1.108 0 0 1-.392.22 3.979 3.979 0 0 1-.505.13c-.18.033-.369.065-.565.085-.198.026-.396.054-.592.087a5.363 5.363 0 0 0-.549.14 1.678 1.678 0 0 0-.47.235c-.133.099-.24.225-.321.376-.083.148-.122.341-.122.572 0 .224.04.409.122.56.08.15.191.268.33.355.14.087.301.149.488.182.185.037.377.054.574.054.488 0 .865-.08 1.132-.245.266-.16.464-.355.592-.583.127-.226.206-.456.234-.687a4.54 4.54 0 0 0 .044-.557v-.924zm-5.71-1.826c.035-.581.18-1.062.436-1.445.254-.383.579-.692.975-.923a4.242 4.242 0 0 1 1.332-.497c.492-.096.99-.147 1.488-.147.452 0 .91.032 1.375.097.464.061.888.188 1.27.373.384.185.697.443.94.774.245.33.366.77.366 1.315v4.683c0 .405.023.795.07 1.166.046.37.128.65.244.834h-2.507a3.591 3.591 0 0 1-.174-.868c-.396.405-.86.69-1.393.851a5.58 5.58 0 0 1-1.636.245c-.43 0-.831-.052-1.201-.156a2.755 2.755 0 0 1-.975-.488 2.262 2.262 0 0 1-.654-.835c-.157-.337-.234-.74-.234-1.203 0-.51.089-.93.269-1.26.18-.33.411-.595.696-.793.285-.196.61-.345.975-.444.366-.099.734-.176 1.106-.235.37-.058.736-.106 1.097-.139.36-.035.68-.087.958-.158.278-.068.498-.17.661-.304.162-.133.238-.328.226-.582 0-.268-.044-.48-.13-.638a.975.975 0 0 0-.35-.364 1.325 1.325 0 0 0-.504-.173 3.987 3.987 0 0 0-.617-.044c-.488 0-.87.104-1.15.313-.278.21-.44.556-.487 1.045h-2.472zM294.404 119.704c.109.192.251.349.427.47.172.122.373.213.6.271.226.059.46.086.704.086.174 0 .358-.02.55-.062.19-.04.365-.103.521-.19.157-.087.287-.203.391-.347a.918.918 0 0 0 .157-.55c0-.37-.247-.65-.74-.834-.493-.187-1.181-.372-2.063-.558a12.38 12.38 0 0 1-1.052-.288 3.613 3.613 0 0 1-.913-.435 2.1 2.1 0 0 1-.646-.679c-.162-.273-.244-.607-.244-1.001 0-.58.114-1.056.34-1.426.227-.37.524-.665.896-.882.372-.212.79-.364 1.254-.45.465-.086.94-.13 1.427-.13.488 0 .96.047 1.42.139.459.093.867.248 1.226.47.361.22.659.512.897.878s.38.828.426 1.385h-2.348c-.037-.477-.217-.798-.542-.969-.324-.166-.707-.25-1.149-.25-.139 0-.29.008-.452.025a1.53 1.53 0 0 0-.443.114.91.91 0 0 0-.34.252c-.094.11-.14.258-.14.445 0 .22.082.399.244.54.163.139.375.251.636.338.261.087.56.166.896.236.337.07.679.144 1.027.226.36.08.71.179 1.054.296.342.116.647.27.913.462.268.192.481.43.644.712.163.287.244.635.244 1.053 0 .593-.119 1.087-.356 1.489-.24.4-.55.722-.932.967a3.83 3.83 0 0 1-1.314.513 7.577 7.577 0 0 1-3.039-.008 4.048 4.048 0 0 1-1.33-.522 2.974 2.974 0 0 1-.958-.967c-.25-.4-.386-.904-.41-1.507h2.352c0 .267.054.497.165.688M307.111 115.048c-.295-.325-.747-.49-1.35-.49-.394 0-.721.069-.982.202s-.47.3-.627.497a1.825 1.825 0 0 0-.33.625c-.066.223-.104.42-.115.593h4.022c-.116-.626-.322-1.103-.618-1.427m-2.794 4.735c.372.36.905.54 1.601.54.5 0 .93-.125 1.288-.374.361-.25.581-.516.662-.793h2.176c-.348 1.078-.881 1.852-1.602 2.316-.718.465-1.59.696-2.61.696-.708 0-1.348-.112-1.916-.339a3.983 3.983 0 0 1-1.445-.967 4.342 4.342 0 0 1-.913-1.495 5.485 5.485 0 0 1-.323-1.917c0-.672.111-1.3.331-1.88.22-.58.533-1.082.94-1.505a4.422 4.422 0 0 1 1.455-1.002c.561-.243 1.185-.364 1.87-.364.766 0 1.434.146 2.002.442a4.01 4.01 0 0 1 1.402 1.193c.366.499.629 1.068.792 1.706.163.638.22 1.306.174 2.004h-6.494c.035.799.24 1.38.61 1.739M318.14 116.354a2.844 2.844 0 0 0-.384-.923 2.016 2.016 0 0 0-.652-.636c-.26-.155-.579-.236-.95-.236-.359 0-.672.08-.94.236a1.97 1.97 0 0 0-.66.636 2.844 2.844 0 0 0-.384.923 4.74 4.74 0 0 0-.122 1.095c0 .373.04.733.122 1.08.08.349.21.656.383.923.174.266.394.48.662.635.267.157.58.236.94.236.37 0 .688-.08.95-.236.259-.155.477-.369.651-.635.174-.267.303-.574.383-.922.081-.348.122-.708.122-1.081 0-.383-.041-.747-.122-1.095zm-4.005-6.842v4.525h.035a2.62 2.62 0 0 1 1.228-1.016 4.14 4.14 0 0 1 1.61-.323 3.438 3.438 0 0 1 2.532 1.132c.354.383.642.872.862 1.471.22.597.331 1.308.331 2.132 0 .823-.11 1.534-.33 2.132-.22.598-.509 1.089-.863 1.472a3.44 3.44 0 0 1-2.532 1.132c-.662 0-1.254-.105-1.776-.314a2.252 2.252 0 0 1-1.184-1.062h-.035v1.147h-2.35v-12.428h2.472zM327.905 117.536a1.108 1.108 0 0 1-.392.22 3.979 3.979 0 0 1-.505.13c-.18.033-.369.065-.565.085-.198.026-.396.054-.592.087a5.363 5.363 0 0 0-.549.14 1.678 1.678 0 0 0-.47.235c-.133.099-.24.225-.321.376-.083.148-.122.341-.122.572 0 .224.04.409.122.56.08.15.191.268.33.355.14.087.301.149.488.182.185.037.377.054.574.054.488 0 .864-.08 1.132-.245.266-.16.464-.355.592-.583.126-.226.206-.456.234-.687a4.54 4.54 0 0 0 .044-.557v-.924zm-5.71-1.826c.035-.581.18-1.062.436-1.445.254-.383.579-.692.974-.923a4.242 4.242 0 0 1 1.333-.497c.492-.096.99-.147 1.488-.147.452 0 .91.032 1.375.097.464.061.888.188 1.27.373.384.185.697.443.94.774.244.33.366.77.366 1.315v4.683c0 .405.023.795.07 1.166.046.37.128.65.244.834h-2.507a3.591 3.591 0 0 1-.174-.868c-.396.405-.86.69-1.393.851a5.58 5.58 0 0 1-1.636.245c-.43 0-.831-.052-1.201-.156a2.755 2.755 0 0 1-.975-.488 2.262 2.262 0 0 1-.654-.835c-.157-.337-.234-.74-.234-1.203 0-.51.088-.93.269-1.26.18-.33.411-.595.696-.793.285-.196.61-.345.975-.444.366-.099.734-.176 1.106-.235.37-.058.736-.106 1.097-.139.36-.035.679-.087.958-.158.278-.068.498-.17.661-.304.161-.133.237-.328.226-.582 0-.268-.044-.48-.131-.638a.975.975 0 0 0-.348-.364 1.325 1.325 0 0 0-.505-.173 3.987 3.987 0 0 0-.617-.044c-.488 0-.87.104-1.15.313-.278.21-.44.556-.487 1.045h-2.472zM332.362 121.94h2.472v-12.43h-2.472zM336.854 121.94h2.472v-12.43h-2.472z" mask="url(#d)"/>
        <path fill="#044DA1" d="M80.07 59.035L99.217.049l58.99 19.143-19.145 58.988z" mask="url(#d)"/>
        <path stroke="#044DA1" stroke-width=".048" d="M80.07 59.035L99.217.049l58.99 19.143-19.145 58.988z" mask="url(#d)"/>
        <path fill="#009ED9" d="M143.334 86.894l-4.491-61.854 61.855-4.493 4.49 61.855z" mask="url(#d)"/>
        <path stroke="#009ED9" stroke-width=".048" d="M143.334 86.894l-4.491-61.854 61.855-4.493 4.49 61.855z" mask="url(#d)"/>
        <path fill="#00AC7D" d="M197.374 75.643l6.803-61.642 61.64 6.804-6.805 61.644z" mask="url(#d)"/>
        <path stroke="#00AC7D" stroke-width=".048" d="M197.374 75.643l6.803-61.642 61.64 6.804-6.805 61.644z" mask="url(#d)"/>
        <path fill="#FEFEFE" d="M95.686 33.892h13.95c11.108 0 9.813 5.272 7.757 11.067-2.052 5.8-4.488 11.07-15.598 11.07H87.846l7.84-22.137zm3.242 17.982h1.911c3.721 0 4.515-.93 6.635-6.915 2.12-5.982 1.984-6.912-1.738-6.912h-1.912l-4.896 13.827zM136.028 33.46c9.818 0 12.034 3.224 9.103 11.5-2.931 8.28-7.434 11.503-17.25 11.503-9.819 0-12.035-3.223-9.104-11.504 2.933-8.275 7.432-11.499 17.25-11.499m-6.763 19.097c2.945 0 3.826-1.614 5.945-7.598 2.12-5.982 2.38-7.594-.565-7.594s-3.826 1.612-5.945 7.594c-2.121 5.984-2.38 7.598.565 7.598M163.813 33.46c9.817 0 12.034 3.224 9.103 11.5-2.931 8.28-7.434 11.503-17.249 11.503-9.818 0-12.035-3.223-9.103-11.504 2.931-8.275 7.43-11.499 17.249-11.499m-6.764 19.097c2.945 0 3.825-1.614 5.944-7.598 2.12-5.982 2.382-7.594-.562-7.594-2.947 0-3.828 1.612-5.946 7.594-2.122 5.984-2.38 7.598.564 7.598M190.778 40.28l.184-.527c.46-1.302-.033-2.388-1.893-2.388-2.065 0-3.336.962-3.687 1.955-1.55 4.37 14.916 2.231 12.053 10.323-1.671 4.711-7.017 6.82-15.49 6.82-7.956 0-11.82-1.644-10.196-6.233l.276-.772h9.3l-.186.525c-.67 1.891.381 2.573 2.24 2.573 1.963 0 3.429-.929 3.86-2.138 1.545-4.372-14.31-2.203-11.53-10.046 1.581-4.463 6.425-6.911 14.538-6.911 8.37 0 11.198 2.076 9.52 6.82h-8.989zM211.403 33.892h12.093l1.15 22.136h-10.23l.388-3.874h-7.645l-2.355 3.874h-10.232l16.831-22.136zm4.495 4.528h-.103l-5.963 9.394h5.374l.692-9.394zM233.672 33.892h10.748l1.37 13.642h.102l4.834-13.642h8.988l-7.839 22.136h-10.541l-1.562-13.672h-.106l-4.843 13.672h-8.99z" mask="url(#d)"/>
    </g>
</symbol>
<symbol id="doosan-logo-1" viewBox="0 0 150 49">
<title>doosan-logo-1</title>
<defs>
            <path id='a' d='M0 47.661h149.51V0H0z' />
        </defs>
        <g fill='none' fillRule='evenodd' transform='translate(.134 .605)'>
            <path fill='#004785' d='M15.15 44.794c.043.176.113.335.21.475.096.141.221.254.376.339.154.085.342.127.564.127.222 0 .41-.042.565-.127.155-.085.28-.198.376-.339.097-.14.167-.299.21-.475a2.4 2.4 0 0 0 0-1.109 1.483 1.483 0 0 0-.21-.487 1.06 1.06 0 0 0-.376-.342 1.16 1.16 0 0 0-.565-.127c-.222 0-.41.042-.564.127-.155.085-.28.199-.377.342a1.494 1.494 0 0 0-.21.487 2.4 2.4 0 0 0-.066.566c0 .186.022.367.066.543zm-.901-1.466c.1-.284.244-.53.433-.742.188-.211.42-.377.693-.497.274-.12.583-.18.925-.18.348 0 .657.06.929.18s.502.286.69.497c.188.211.332.458.433.742.1.284.15.591.15.923 0 .323-.05.624-.15.904-.1.28-.245.522-.433.73-.188.207-.418.369-.69.487a2.311 2.311 0 0 1-.929.176c-.342 0-.651-.058-.925-.176a1.982 1.982 0 0 1-.693-.488 2.155 2.155 0 0 1-.433-.73c-.1-.279-.15-.58-.15-.903 0-.332.05-.639.15-.923zM18.741 43.828v-.59h.533v-.248c0-.286.09-.52.27-.703.18-.182.452-.273.816-.273.079 0 .159.003.238.01l.232.015v.659a2.77 2.77 0 0 0-.326-.019c-.122 0-.208.028-.26.084-.053.056-.079.15-.079.283v.192h.615v.59h-.615v2.622h-.89v-2.622h-.534z'
            />
            <path fill='#004785' d='M20.717 43.828v-.59h.534v-.248c0-.286.09-.52.27-.703.18-.182.451-.273.815-.273.08 0 .16.003.238.01l.233.015v.659a2.77 2.77 0 0 0-.327-.019c-.121 0-.208.028-.26.084-.053.056-.078.15-.078.283v.192h.614v.59h-.614v2.622h-.891v-2.622h-.534z'
            />
            <mask id='b' fill='#fff'>
                <use xlinkHref='#a' />
            </mask>
            <path fill='#004785' d='M23.17 46.45h.892v-3.212h-.891v3.211zm0-3.709h.892v-.727h-.891v.727zM26.314 43.816a.633.633 0 0 0-.358.096.775.775 0 0 0-.236.248c-.06.102-.103.213-.128.336a1.73 1.73 0 0 0 0 .718c.025.12.066.228.123.326a.64.64 0 0 0 .58.333c.213 0 .377-.06.493-.178a.836.836 0 0 0 .216-.476h.86c-.06.427-.227.752-.503.976-.276.223-.63.336-1.06.336a1.8 1.8 0 0 1-.668-.122 1.478 1.478 0 0 1-.85-.857 1.787 1.787 0 0 1-.12-.662c0-.248.037-.479.11-.692.074-.214.182-.398.324-.553.142-.155.315-.277.52-.363.205-.088.44-.131.703-.131.192 0 .377.025.555.074.178.05.337.126.477.227.14.102.254.228.342.379.088.152.138.33.15.537h-.872c-.058-.368-.278-.552-.658-.552M28.39 46.45h.891v-3.212h-.89v3.211zm0-3.709h.891v-.727h-.89v.727zM32.004 44.878a.4.4 0 0 1-.141.078 1.548 1.548 0 0 1-.182.046 2.972 2.972 0 0 1-.204.031 4.51 4.51 0 0 0-.213.031 1.81 1.81 0 0 0-.198.05.607.607 0 0 0-.17.084.395.395 0 0 0-.115.134.418.418 0 0 0-.044.204c0 .08.014.145.044.2.029.053.069.095.119.127.05.03.108.053.175.064.067.013.136.02.208.02.175 0 .31-.03.407-.088a.586.586 0 0 0 .214-.208.665.665 0 0 0 .084-.245c.01-.083.016-.149.016-.2v-.328zm-2.058-.652c.013-.207.065-.379.157-.516s.209-.246.351-.329c.142-.083.302-.142.48-.177s.357-.053.537-.053c.163 0 .328.012.495.034.167.023.32.067.458.134a.9.9 0 0 1 .34.276c.087.118.13.275.13.47v1.67c0 .145.009.284.026.417a.745.745 0 0 0 .088.297h-.904a1.271 1.271 0 0 1-.062-.31 1.16 1.16 0 0 1-.502.304 2.03 2.03 0 0 1-.59.088c-.155 0-.3-.02-.433-.057a.986.986 0 0 1-.351-.173.815.815 0 0 1-.236-.299.999.999 0 0 1-.084-.429c0-.181.032-.332.097-.45a.808.808 0 0 1 .25-.282c.103-.07.22-.123.352-.159a3.73 3.73 0 0 1 .399-.083 6.64 6.64 0 0 1 .395-.05c.13-.012.245-.032.345-.056.1-.025.18-.061.238-.109.059-.047.086-.117.082-.208a.469.469 0 0 0-.047-.227.345.345 0 0 0-.126-.13.491.491 0 0 0-.182-.062 1.526 1.526 0 0 0-.222-.016c-.176 0-.314.038-.414.112-.1.074-.16.199-.176.373h-.89zM33.61 46.45h.891v-4.436h-.89zM38.792 44.101c.113 0 .222-.008.326-.025a.764.764 0 0 0 .276-.096.534.534 0 0 0 .192-.201.709.709 0 0 0 .072-.342.703.703 0 0 0-.072-.342.527.527 0 0 0-.192-.202.764.764 0 0 0-.276-.096 2.104 2.104 0 0 0-.326-.025h-.765v1.33h.765zm.27-2.086c.28 0 .518.04.715.12.196.081.357.188.48.32.124.133.213.284.27.454a1.675 1.675 0 0 1 0 1.053 1.226 1.226 0 0 1-.27.457 1.344 1.344 0 0 1-.48.32c-.197.08-.435.12-.715.12h-1.035v1.59h-.985v-4.434h2.02zM43.152 44.878a.4.4 0 0 1-.141.078 1.548 1.548 0 0 1-.182.046 2.972 2.972 0 0 1-.204.031 4.51 4.51 0 0 0-.213.031 1.81 1.81 0 0 0-.198.05.607.607 0 0 0-.17.084.395.395 0 0 0-.115.134.418.418 0 0 0-.044.204c0 .08.014.145.044.2.03.053.07.095.12.127.05.03.108.053.175.064.067.013.136.02.207.02.176 0 .311-.03.408-.088a.586.586 0 0 0 .213-.208.665.665 0 0 0 .084-.245c.011-.083.016-.149.016-.2v-.328zm-2.057-.652c.012-.207.064-.379.156-.516s.21-.246.352-.329c.142-.083.302-.142.48-.177.177-.035.357-.053.536-.053.163 0 .328.012.496.034.167.023.32.067.458.134a.9.9 0 0 1 .339.276c.087.118.131.275.131.47v1.67c0 .145.008.284.025.417a.745.745 0 0 0 .088.297h-.903a1.271 1.271 0 0 1-.063-.31 1.16 1.16 0 0 1-.502.304 2.03 2.03 0 0 1-.59.088c-.155 0-.299-.02-.432-.057a.986.986 0 0 1-.352-.173.815.815 0 0 1-.235-.299.999.999 0 0 1-.085-.429c0-.181.032-.332.097-.45a.808.808 0 0 1 .251-.282c.103-.07.22-.123.351-.159a3.73 3.73 0 0 1 .4-.083 6.64 6.64 0 0 1 .394-.05c.13-.012.245-.032.345-.056.1-.025.18-.061.239-.109.058-.047.085-.117.081-.208a.469.469 0 0 0-.047-.227.345.345 0 0 0-.125-.13.491.491 0 0 0-.182-.062 1.526 1.526 0 0 0-.223-.016c-.175 0-.313.038-.414.112-.1.074-.159.199-.175.373h-.891zM45.58 43.238v.597h.013a1.08 1.08 0 0 1 .414-.494c.092-.06.19-.107.295-.14.104-.033.213-.05.326-.05.058 0 .123.01.194.03v.821a1.658 1.658 0 0 0-.32-.03.969.969 0 0 0-.414.08.715.715 0 0 0-.272.22.875.875 0 0 0-.148.327c-.029.124-.044.258-.044.403v1.448h-.89v-3.212h.846zM48.955 43.238v.59h-.652v1.59c0 .15.025.249.075.299.05.05.15.074.301.074a1.484 1.484 0 0 0 .276-.025v.684c-.075.012-.158.02-.25.024a5.497 5.497 0 0 1-.27.007c-.138 0-.27-.01-.392-.029a.932.932 0 0 1-.327-.108.58.58 0 0 1-.223-.23.817.817 0 0 1-.081-.392v-1.894h-.54v-.59h.54v-.963h.89v.963h.653zM50.23 43.238v.447h.018a1.02 1.02 0 0 1 .44-.407c.179-.084.363-.127.551-.127.239 0 .434.032.586.097a.868.868 0 0 1 .361.266c.088.114.15.253.185.417.036.163.054.345.054.543v1.976h-.891v-1.814c0-.265-.042-.463-.125-.594-.084-.13-.233-.195-.446-.195-.243 0-.418.071-.527.214-.109.143-.163.378-.163.705v1.684h-.89v-3.212h.846zM55.063 43.99c-.107-.116-.27-.175-.486-.175a.783.783 0 0 0-.355.072.67.67 0 0 0-.345.4.981.981 0 0 0-.04.212h1.448c-.041-.223-.115-.393-.222-.51m-1.007 1.69c.134.129.326.193.577.193.18 0 .335-.045.464-.133.13-.09.21-.184.239-.283h.784c-.126.384-.318.66-.577.826-.26.166-.573.248-.941.248-.255 0-.486-.04-.69-.121a1.428 1.428 0 0 1-.521-.344 1.544 1.544 0 0 1-.33-.535 1.934 1.934 0 0 1-.116-.683c0-.24.04-.464.12-.67a1.568 1.568 0 0 1 .863-.895c.202-.087.427-.13.674-.13.276 0 .516.052.721.157.205.106.374.248.505.426.132.178.227.381.286.609.058.227.079.466.062.714h-2.34c.013.285.086.493.22.621M57.55 43.238v.597h.013a1.08 1.08 0 0 1 .414-.494c.092-.06.19-.107.295-.14.104-.033.213-.05.326-.05.058 0 .123.01.195.03v.821a1.658 1.658 0 0 0-.32-.03.969.969 0 0 0-.414.08.715.715 0 0 0-.273.22.875.875 0 0 0-.148.327c-.029.124-.044.258-.044.403v1.448h-.89v-3.212h.846zM61.716 45.223a.992.992 0 0 0 .129.33c.06.096.14.174.241.232.1.058.226.087.377.087a.76.76 0 0 0 .38-.087.678.678 0 0 0 .244-.233c.06-.098.103-.207.129-.33a1.866 1.866 0 0 0 0-.754.966.966 0 0 0-.129-.33.713.713 0 0 0-.244-.232.743.743 0 0 0-.38-.09c-.15 0-.276.03-.377.09-.1.06-.18.137-.241.233a.955.955 0 0 0-.129.329 1.906 1.906 0 0 0 0 .755m-.81-1.075c.08-.209.193-.387.34-.535.146-.146.322-.26.527-.34.204-.082.435-.122.69-.122.255 0 .486.04.693.121.207.08.383.195.53.341.147.148.26.326.339.535.08.21.119.442.119.699 0 .257-.04.488-.12.696-.078.207-.191.384-.338.53-.147.148-.323.26-.53.34a1.94 1.94 0 0 1-.693.117c-.255 0-.486-.04-.69-.118a1.486 1.486 0 0 1-.527-.338 1.505 1.505 0 0 1-.34-.531 1.933 1.933 0 0 1-.118-.696c0-.257.04-.49.119-.699M64.382 43.828v-.59h.534v-.248c0-.286.09-.52.27-.703.179-.182.451-.273.815-.273.08 0 .16.003.238.01l.233.015v.659a2.77 2.77 0 0 0-.327-.019c-.121 0-.208.028-.26.084-.053.056-.079.15-.079.283v.192h.615v.59h-.615v2.622h-.89v-2.622h-.534zM70.035 42.014l1.048 3.05h.012l.992-3.05h1.386v4.436h-.922v-3.143h-.013L71.44 46.45h-.759l-1.098-3.112h-.012v3.112h-.922v-4.436zM76.265 44.878a.4.4 0 0 1-.141.078 1.548 1.548 0 0 1-.182.046 2.972 2.972 0 0 1-.204.031 4.51 4.51 0 0 0-.213.031 1.81 1.81 0 0 0-.198.05.607.607 0 0 0-.17.084.395.395 0 0 0-.115.134.418.418 0 0 0-.044.204c0 .08.014.145.044.2.029.053.069.095.119.127.05.03.108.053.176.064.066.013.135.02.207.02.175 0 .311-.03.407-.088a.586.586 0 0 0 .214-.208.665.665 0 0 0 .084-.245c.011-.083.016-.149.016-.2v-.328zm-2.058-.652c.013-.207.065-.379.157-.516s.209-.246.352-.329c.142-.083.301-.142.48-.177.177-.035.356-.053.536-.053.163 0 .328.012.495.034.168.023.32.067.458.134a.9.9 0 0 1 .34.276c.087.118.131.275.131.47v1.67c0 .145.008.284.025.417a.745.745 0 0 0 .088.297h-.903a1.271 1.271 0 0 1-.063-.31 1.16 1.16 0 0 1-.502.304 2.03 2.03 0 0 1-.59.088c-.155 0-.3-.02-.433-.057a.986.986 0 0 1-.351-.173.815.815 0 0 1-.236-.299.999.999 0 0 1-.084-.429c0-.181.032-.332.097-.45a.808.808 0 0 1 .25-.282c.104-.07.22-.123.352-.159a3.73 3.73 0 0 1 .399-.083 6.64 6.64 0 0 1 .395-.05c.13-.012.245-.032.345-.056.1-.025.18-.061.239-.109.058-.047.085-.117.081-.208a.469.469 0 0 0-.047-.227.345.345 0 0 0-.126-.13.491.491 0 0 0-.182-.062 1.526 1.526 0 0 0-.222-.016c-.176 0-.314.038-.414.112-.1.074-.16.199-.176.373h-.89zM77.928 42.741h.89v-.727h-.89v.727zm-.345 4.106a.53.53 0 0 0 .241-.053c.069-.035.104-.112.104-.233v-3.323h.89v3.367c0 .165-.018.308-.053.429a.661.661 0 0 1-.182.3.8.8 0 0 1-.348.18 2.191 2.191 0 0 1-.84.035v-.727a.58.58 0 0 0 .188.025zM80.418 45.223a.992.992 0 0 0 .13.33c.06.096.14.174.24.232.1.058.226.087.377.087a.76.76 0 0 0 .38-.087.678.678 0 0 0 .244-.233c.06-.098.104-.207.129-.33a1.866 1.866 0 0 0 0-.754.966.966 0 0 0-.129-.33.713.713 0 0 0-.244-.232.743.743 0 0 0-.38-.09c-.15 0-.276.03-.377.09-.1.06-.18.137-.24.233a.955.955 0 0 0-.13.329 1.906 1.906 0 0 0 0 .755m-.81-1.075c.08-.209.193-.387.34-.535.146-.146.322-.26.527-.34.204-.082.435-.122.69-.122.255 0 .486.04.693.121.207.08.384.195.53.341.147.148.26.326.339.535.08.21.12.442.12.699 0 .257-.04.488-.12.696-.08.207-.192.384-.339.53-.146.148-.323.26-.53.34a1.94 1.94 0 0 1-.693.117c-.255 0-.486-.04-.69-.118a1.486 1.486 0 0 1-.527-.338 1.505 1.505 0 0 1-.34-.531 1.933 1.933 0 0 1-.118-.696c0-.257.04-.49.119-.699M84.27 43.238v.597h.013a1.08 1.08 0 0 1 .414-.494c.092-.06.19-.107.295-.14.104-.033.213-.05.326-.05.058 0 .123.01.194.03v.821a1.658 1.658 0 0 0-.32-.03.969.969 0 0 0-.414.08.715.715 0 0 0-.272.22.875.875 0 0 0-.148.327c-.029.124-.044.258-.044.403v1.448h-.89v-3.212h.846zM88.687 42.014v3.615h2.183v.82h-3.168v-4.435zM93.289 43.99c-.107-.116-.27-.175-.487-.175a.783.783 0 0 0-.354.072.67.67 0 0 0-.345.4.981.981 0 0 0-.041.212h1.45c-.042-.223-.117-.393-.223-.51m-1.007 1.69c.134.129.326.193.577.193.18 0 .335-.045.464-.133.13-.09.21-.184.238-.283h.785c-.126.384-.318.66-.578.826-.259.166-.573.248-.94.248-.256 0-.486-.04-.69-.121a1.428 1.428 0 0 1-.521-.344 1.544 1.544 0 0 1-.33-.535 1.934 1.934 0 0 1-.116-.683c0-.24.04-.464.12-.67a1.568 1.568 0 0 1 .862-.895c.203-.087.427-.13.674-.13.276 0 .517.052.722.157.205.106.373.248.505.426s.227.381.285.609c.06.227.08.466.063.714h-2.34c.013.285.086.493.22.621M96.95 44.878a.4.4 0 0 1-.142.078 1.548 1.548 0 0 1-.182.046 2.972 2.972 0 0 1-.203.031 4.51 4.51 0 0 0-.214.031 1.81 1.81 0 0 0-.198.05.607.607 0 0 0-.17.084.395.395 0 0 0-.115.134.418.418 0 0 0-.044.204c0 .08.014.145.044.2.03.053.07.095.12.127.05.03.108.053.175.064.067.013.136.02.207.02.176 0 .311-.03.408-.088a.586.586 0 0 0 .213-.208.665.665 0 0 0 .085-.245c.01-.083.016-.149.016-.2v-.328zm-2.058-.652c.012-.207.064-.379.157-.516.091-.137.208-.246.35-.329.143-.083.303-.142.481-.177.177-.035.357-.053.536-.053.163 0 .328.012.496.034.167.023.32.067.458.134a.9.9 0 0 1 .339.276c.087.118.131.275.131.47v1.67c0 .145.008.284.025.417a.745.745 0 0 0 .088.297h-.903a1.271 1.271 0 0 1-.063-.31 1.16 1.16 0 0 1-.502.304 2.03 2.03 0 0 1-.59.088c-.155 0-.299-.02-.432-.057a.986.986 0 0 1-.352-.173.815.815 0 0 1-.235-.299.999.999 0 0 1-.085-.429c0-.181.032-.332.097-.45a.808.808 0 0 1 .251-.282c.103-.07.22-.123.352-.159a3.73 3.73 0 0 1 .398-.083 6.64 6.64 0 0 1 .395-.05c.13-.012.245-.032.346-.056.1-.025.18-.061.238-.109.058-.047.085-.117.082-.208a.469.469 0 0 0-.048-.227.345.345 0 0 0-.125-.13.491.491 0 0 0-.182-.062 1.526 1.526 0 0 0-.223-.016c-.175 0-.313.038-.414.112-.1.074-.159.199-.175.373h-.891zM100.375 45.617a.69.69 0 0 0 .238-.2.884.884 0 0 0 .142-.281c.03-.106.046-.216.046-.333a1.8 1.8 0 0 0-.037-.375.941.941 0 0 0-.126-.314.647.647 0 0 0-.232-.217.735.735 0 0 0-.364-.081.662.662 0 0 0-.322.074.673.673 0 0 0-.226.203.842.842 0 0 0-.133.29c-.026.111-.04.226-.04.346 0 .116.011.23.034.344a.92.92 0 0 0 .12.308.634.634 0 0 0 .568.31.715.715 0 0 0 .332-.074m1.22 1.069a1.08 1.08 0 0 1-.229.462 1.352 1.352 0 0 1-.508.363c-.222.1-.518.15-.89.15-.16 0-.322-.02-.487-.059-.165-.04-.316-.1-.452-.184a1.104 1.104 0 0 1-.339-.32.923.923 0 0 1-.153-.468h.884c.042.165.123.28.245.344a.883.883 0 0 0 .42.097c.251 0 .434-.075.55-.224a.874.874 0 0 0 .165-.565v-.423h-.012a.885.885 0 0 1-.411.377 1.35 1.35 0 0 1-.561.12c-.243 0-.452-.042-.628-.127-.176-.084-.32-.2-.433-.347a1.447 1.447 0 0 1-.247-.516 2.416 2.416 0 0 1-.079-.625c0-.207.03-.406.091-.599.06-.193.15-.362.267-.51.117-.146.262-.263.435-.35.174-.087.374-.13.6-.13.213 0 .4.039.562.117.16.079.295.211.404.398h.012v-.429h.847v3.007c0 .128-.017.275-.053.44M104.56 46.45v-.448h-.02a1 1 0 0 1-.439.404c-.18.083-.364.125-.552.125a1.58 1.58 0 0 1-.586-.093.85.85 0 0 1-.361-.265 1.025 1.025 0 0 1-.185-.417 2.531 2.531 0 0 1-.054-.542v-1.976h.891v1.814c0 .265.042.463.126.593.084.13.232.196.445.196.243 0 .418-.072.527-.214.11-.143.163-.378.163-.706v-1.683h.891v3.211h-.847zM108.044 43.99c-.106-.116-.269-.175-.486-.175a.783.783 0 0 0-.354.072.67.67 0 0 0-.345.4.981.981 0 0 0-.041.212h1.449c-.042-.223-.116-.393-.223-.51m-1.007 1.69c.134.129.326.193.577.193.18 0 .335-.045.465-.133.13-.09.209-.184.238-.283h.784c-.125.384-.317.66-.577.826-.259.166-.573.248-.941.248-.255 0-.485-.04-.69-.121a1.428 1.428 0 0 1-.52-.344 1.544 1.544 0 0 1-.33-.535 1.934 1.934 0 0 1-.116-.683c0-.24.04-.464.119-.67a1.568 1.568 0 0 1 .863-.895c.202-.087.427-.13.674-.13.276 0 .517.052.722.157.204.106.373.248.505.426s.226.381.285.609c.059.227.08.466.063.714h-2.34c.012.285.086.493.22.621M113.562 45.692c.096 0 .188-.01.276-.029a.673.673 0 0 0 .232-.093.463.463 0 0 0 .16-.177c.04-.074.06-.169.06-.285 0-.228-.065-.39-.195-.488-.13-.097-.3-.146-.514-.146h-1.073v1.218h1.054zm-.056-1.883c.175 0 .32-.04.433-.124.112-.082.169-.217.169-.404a.511.511 0 0 0-.057-.254.417.417 0 0 0-.15-.155.657.657 0 0 0-.217-.078 1.484 1.484 0 0 0-.254-.022h-.922v1.037h.998zm.125-1.795c.213 0 .408.019.584.056.175.037.326.099.451.183a.86.86 0 0 1 .292.339c.069.141.104.315.104.522 0 .223-.052.41-.154.559-.103.149-.254.27-.455.366.276.08.482.217.618.414.136.196.204.433.204.71 0 .224-.044.418-.132.582a1.128 1.128 0 0 1-.355.4c-.148.103-.317.18-.508.23-.19.05-.385.074-.586.074h-2.17v-4.435h2.107zM117.866 44.878a.4.4 0 0 1-.141.078 1.548 1.548 0 0 1-.182.046 2.972 2.972 0 0 1-.204.031 4.51 4.51 0 0 0-.213.031 1.81 1.81 0 0 0-.198.05.607.607 0 0 0-.17.084.395.395 0 0 0-.115.134.418.418 0 0 0-.044.204c0 .08.014.145.044.2.029.053.069.095.119.127.05.03.108.053.176.064.066.013.135.02.207.02.175 0 .311-.03.407-.088a.586.586 0 0 0 .214-.208.665.665 0 0 0 .084-.245c.011-.083.016-.149.016-.2v-.328zm-2.058-.652c.013-.207.065-.379.157-.516s.209-.246.352-.329c.142-.083.301-.142.48-.177.177-.035.356-.053.536-.053.163 0 .328.012.495.034.168.023.32.067.458.134a.9.9 0 0 1 .34.276c.087.118.131.275.131.47v1.67c0 .145.008.284.025.417a.745.745 0 0 0 .088.297h-.903a1.271 1.271 0 0 1-.063-.31 1.16 1.16 0 0 1-.502.304 2.03 2.03 0 0 1-.59.088c-.155 0-.3-.02-.433-.057a.986.986 0 0 1-.351-.173.815.815 0 0 1-.236-.299.999.999 0 0 1-.084-.429c0-.181.032-.332.097-.45a.808.808 0 0 1 .25-.282c.104-.07.22-.123.352-.159a3.73 3.73 0 0 1 .399-.083 6.64 6.64 0 0 1 .395-.05c.13-.012.245-.032.345-.056.1-.025.18-.061.239-.109.058-.047.085-.117.081-.208a.469.469 0 0 0-.047-.227.345.345 0 0 0-.126-.13.491.491 0 0 0-.182-.062 1.526 1.526 0 0 0-.222-.016c-.176 0-.314.038-.414.112-.1.074-.16.199-.176.373h-.89zM120.197 45.651c.04.069.09.125.154.168a.66.66 0 0 0 .216.097 1.044 1.044 0 0 0 .452.008.664.664 0 0 0 .188-.068.43.43 0 0 0 .14-.124.325.325 0 0 0 .057-.196c0-.132-.089-.231-.266-.297a5.375 5.375 0 0 0-.744-.2 4.106 4.106 0 0 1-.38-.103 1.288 1.288 0 0 1-.328-.154.758.758 0 0 1-.233-.243.687.687 0 0 1-.088-.357c0-.207.041-.377.123-.51a.9.9 0 0 1 .323-.313c.134-.076.284-.13.451-.161a2.816 2.816 0 0 1 1.026.003c.166.033.313.089.442.167.13.08.238.184.324.314.085.13.137.295.153.494h-.846c-.013-.17-.078-.285-.195-.345a.905.905 0 0 0-.414-.09c-.05 0-.105.003-.163.01a.556.556 0 0 0-.16.04.33.33 0 0 0-.123.09.236.236 0 0 0-.05.159c0 .078.03.142.088.192.059.05.135.09.23.121.093.031.201.06.322.084.121.025.245.052.37.08.13.03.256.065.38.107.123.04.233.096.33.164a.797.797 0 0 1 .231.255.739.739 0 0 1 .088.375c0 .211-.043.388-.128.531a1.03 1.03 0 0 1-.336.346 1.4 1.4 0 0 1-.474.183 2.805 2.805 0 0 1-1.095-.004c-.18-.037-.339-.1-.48-.186a1.065 1.065 0 0 1-.344-.345 1.074 1.074 0 0 1-.148-.537h.847c0 .095.02.177.06.245M124.777 43.99c-.107-.116-.27-.175-.487-.175a.783.783 0 0 0-.354.072.67.67 0 0 0-.345.4.981.981 0 0 0-.041.212h1.449c-.042-.223-.116-.393-.222-.51m-1.008 1.69c.134.129.327.193.577.193.18 0 .335-.045.465-.133.13-.09.209-.184.238-.283h.784c-.125.384-.317.66-.577.826-.259.166-.573.248-.94.248-.256 0-.486-.04-.691-.121a1.428 1.428 0 0 1-.52-.344 1.544 1.544 0 0 1-.33-.535 1.934 1.934 0 0 1-.116-.683c0-.24.04-.464.119-.67a1.568 1.568 0 0 1 .863-.895c.202-.087.427-.13.674-.13.276 0 .517.052.722.157.204.106.373.248.505.426s.226.381.285.609c.059.227.08.466.063.714h-2.34c.012.285.086.493.22.621M128.75 44.456a1.004 1.004 0 0 0-.137-.33.723.723 0 0 0-.235-.226.66.66 0 0 0-.342-.085.663.663 0 0 0-.578.312 1.004 1.004 0 0 0-.138.329c-.03.124-.044.254-.044.39 0 .134.015.261.044.386.03.124.076.234.138.329a.663.663 0 0 0 .577.311.66.66 0 0 0 .343-.084.723.723 0 0 0 .235-.227c.063-.095.109-.205.138-.329a1.707 1.707 0 0 0 0-.776zm-1.442-2.441v1.614h.012a.947.947 0 0 1 .443-.363c.186-.076.38-.115.58-.115a1.25 1.25 0 0 1 .913.404c.127.136.231.311.31.525.08.213.12.467.12.76 0 .295-.04.548-.12.762-.079.213-.183.388-.31.525a1.234 1.234 0 0 1-.913.404c-.238 0-.452-.038-.64-.112a.809.809 0 0 1-.427-.38h-.012v.41h-.847v-4.434h.89zM132.27 44.878a.4.4 0 0 1-.141.078 1.548 1.548 0 0 1-.182.046 2.972 2.972 0 0 1-.204.031 4.51 4.51 0 0 0-.213.031 1.81 1.81 0 0 0-.198.05.607.607 0 0 0-.17.084.395.395 0 0 0-.115.134.418.418 0 0 0-.044.204c0 .08.014.145.044.2.029.053.069.095.12.127.05.03.108.053.175.064.067.013.136.02.207.02.176 0 .311-.03.408-.088a.586.586 0 0 0 .213-.208.665.665 0 0 0 .084-.245c.011-.083.016-.149.016-.2v-.328zm-2.057-.652c.012-.207.064-.379.156-.516s.21-.246.352-.329c.142-.083.301-.142.48-.177.177-.035.356-.053.536-.053.163 0 .328.012.496.034.167.023.32.067.458.134a.9.9 0 0 1 .338.276c.088.118.132.275.132.47v1.67c0 .145.008.284.025.417a.745.745 0 0 0 .088.297h-.903a1.271 1.271 0 0 1-.063-.31 1.16 1.16 0 0 1-.502.304 2.03 2.03 0 0 1-.59.088c-.155 0-.3-.02-.433-.057a.986.986 0 0 1-.35-.173.815.815 0 0 1-.236-.299.999.999 0 0 1-.085-.429c0-.181.032-.332.097-.45a.808.808 0 0 1 .251-.282c.103-.07.22-.123.351-.159a3.73 3.73 0 0 1 .4-.083 6.64 6.64 0 0 1 .394-.05c.13-.012.245-.032.345-.056.1-.025.18-.061.239-.109.058-.047.085-.117.081-.208a.469.469 0 0 0-.047-.227.345.345 0 0 0-.125-.13.491.491 0 0 0-.182-.062 1.526 1.526 0 0 0-.223-.016c-.176 0-.314.038-.414.112-.1.074-.159.199-.176.373h-.89zM133.876 46.45h.891v-4.436h-.89zM135.495 46.45h.89v-4.436h-.89z'
            mask='url(#b)' />
            <path fill='#FEFEFE' d='M144.945 3.951a3.376 3.376 0 0 0-2.391-.98H90.557c-.904 0-1.753.348-2.392.98a3.31 3.31 0 0 0-.99 2.368v23.02c0 .895.352 1.736.99 2.368.64.633 1.488.98 2.392.98h51.997c1.864 0 3.382-1.501 3.382-3.348V6.32c0-.894-.351-1.735-.991-2.368'
            mask='url(#b)' />
            <path fill='#EC174C' d='M144.945 3.951a3.376 3.376 0 0 0-2.391-.98h-14.538l8.363 13.815.765.095.446.63v.6l.542.094.478.661.001.568.541.095s.542.567.542.599v1.292s1.18 1.072 2.23 1.482c.735.283.83 1.45 1.245 2.08.574.884 1.338 1.26 1.179 1.766-.382 1.356-1.782 3.628-3.087 3.754l-5.16.004v2.181h6.453c1.864 0 3.382-1.501 3.382-3.348V6.32c0-.894-.351-1.735-.991-2.368'
            mask='url(#b)' />
            <path fill='#004785' d='M94.167 27.95c-1.283 0-2.323-1.028-2.324-2.298a2.31 2.31 0 0 1 2.32-2.3 2.31 2.31 0 0 1 2.324 2.297 2.309 2.309 0 0 1-2.32 2.3zM123.06 2.97H90.557c-.904 0-1.753.349-2.392.981a3.31 3.31 0 0 0-.99 2.368v23.02c0 .895.352 1.736.99 2.368.64.633 1.488.98 2.392.98h21.115c-.53-.873-1.125-1.866-1.308-2.168h-2.516c-.004-6.18 2.128-9.619 4.645-10.283.35-.063.19-1.766-.257-2.27 0 0-1.21.032-1.464-.03-.32-.095-.097-.41-.097-.41l1.178-2.524-.16-.694-4.363.002c-.064 0 3.597-2.493 3.597-2.493.188-6.56 6.973-7.068 11.082-4.358 2.422 1.607 2.615 4.76 2.424 6.968-.03.127-.636.032-.636.032s-.414 2.398.67 2.397l4.778-.003c1.943-.064 3.823 1.228 3.823 1.228l.476-1.64-10.483-13.47z'
            mask='url(#b)' />
            <path fill='#EC174C' d='M148.285 31.7v-.255h.245c.105 0 .247 0 .247.114 0 .116-.073.141-.193.141h-.3zm.42.19c.188-.012.29-.118.29-.314 0-.28-.17-.322-.414-.322h-.52v1.057h.224v-.421h.186l.249.42h.244l-.26-.42zm-.215.915c.57 0 1.02-.452 1.02-1.018 0-.567-.45-1.018-1.02-1.018-.57 0-1.022.45-1.022 1.018 0 .566.452 1.018 1.022 1.018zm0-1.814c.44 0 .797.34.797.796a.79.79 0 0 1-.797.799.79.79 0 0 1-.798-.8c0-.456.356-.795.798-.795z'
            mask='url(#b)' />
            <path fill='#004785' d='M79.178 32.769h1.188V3.052h-1.188z' mask='url(#b)'
            />
            <path fill='#044DA1' d='M.019 22.852L7.504.019l23.062 7.41-7.485 22.833z'
            mask='url(#b)' />
            <path stroke='#044DA1' strokeWidth='.052' d='M.019 22.852L7.504.019l23.062 7.41-7.485 22.833z'
            mask='url(#b)' />
            <path fill='#009ED9' d='M24.752 33.635L22.996 9.692l24.182-1.739 1.755 23.944z'
            mask='url(#b)' />
            <path stroke='#009ED9' strokeWidth='.052' d='M24.752 33.635L22.996 9.692l24.182-1.739 1.755 23.944z'
            mask='url(#b)' />
            <path fill='#00AC7D' d='M45.878 29.28l2.66-23.86 24.098 2.633-2.66 23.861z'
            mask='url(#b)' />
            <path stroke='#00AC7D' strokeWidth='.052' d='M45.878 29.28l2.66-23.86 24.098 2.633-2.66 23.861z'
            mask='url(#b)' />
            <path fill='#FEFEFE' d='M6.124 13.12h5.453c4.343 0 3.837 2.04 3.033 4.283-.803 2.245-1.755 4.285-6.098 4.285H3.06l3.065-8.569zm1.266 6.96h.748c1.454 0 1.765-.361 2.594-2.677.83-2.315.776-2.676-.68-2.676h-.747L7.39 20.08zM21.895 12.952c3.838 0 4.705 1.248 3.559 4.45-1.146 3.206-2.906 4.454-6.744 4.454-3.839 0-4.705-1.248-3.56-4.453 1.148-3.203 2.907-4.451 6.745-4.451m-2.644 7.392c1.15 0 1.495-.625 2.324-2.941.828-2.315.93-2.94-.221-2.94s-1.496.625-2.324 2.94c-.829 2.316-.93 2.94.221 2.94M32.758 12.952c3.837 0 4.704 1.248 3.559 4.45-1.146 3.206-2.907 4.454-6.744 4.454-3.838 0-4.705-1.248-3.558-4.453 1.145-3.203 2.904-4.451 6.743-4.451m-2.644 7.392c1.15 0 1.495-.625 2.323-2.941.829-2.315.931-2.94-.22-2.94-1.152 0-1.496.625-2.324 2.94-.83 2.316-.93 2.94.22 2.94M43.3 15.592l.072-.205c.18-.503-.013-.924-.74-.924-.808 0-1.305.373-1.442.757-.606 1.691 5.832.864 4.712 3.996-.653 1.823-2.743 2.64-6.056 2.64-3.11 0-4.62-.636-3.985-2.413l.107-.299h3.637l-.073.204c-.263.731.148.996.875.996.768 0 1.34-.36 1.51-.828.603-1.693-5.595-.853-4.509-3.889.618-1.727 2.513-2.675 5.684-2.675 3.272 0 4.378.804 3.722 2.64H43.3zM51.363 13.12h4.728l.45 8.568h-4l.152-1.5h-2.99l-.92 1.5h-4l6.58-8.569zm1.757 1.751h-.04l-2.331 3.637h2.1l.271-3.637zM60.07 13.12h4.2l.537 5.28h.039l1.89-5.28h3.514l-3.065 8.568h-4.12l-.612-5.292h-.04l-1.894 5.292h-3.514z'
            mask='url(#b)' />
        </g>
        </symbol>

</defs>
</svg>